<?xml version="1.0" encoding="UTF-8" standalone="no"?>
<!-- Generator: Adobe Illustrator 20.0.0, SVG Export Plug-In . SVG Version: 6.00 Build 0)  -->
<svg id="Layer_1" xmlns:rdf="http://www.w3.org/1999/02/22-rdf-syntax-ns#" style="enable-background:new 0 0 412 412" xmlns="http://www.w3.org/2000/svg" xml:space="preserve" viewBox="0 0 412 412" version="1.1" y="0px" x="0px" xmlns:cc="http://creativecommons.org/ns#" xmlns:dc="http://purl.org/dc/elements/1.1/"><metadata id="metadata17"><rdf:RDF><cc:Work rdf:about=""><dc:format>image/svg+xml</dc:format><dc:type rdf:resource="http://purl.org/dc/dcmitype/StillImage"/></cc:Work></rdf:RDF></metadata>
	<path d="m0 0v412h412v-412h-412z" fill="#f5f5f5"/>
	<path d="m67 8v11h3v-11h-3m66.02 11.576c-13.01 3.543-8.03 23.923 4.98 20.99 14.33-3.232 9.04-24.81-4.98-20.99z" fill="#E3E3E3"/>
	<path d="m132.11 22.862c-8.65 3.823-2.33 18.23 6.68 14.538 10.02-4.104 3.46-19.022-6.68-14.538z" fill="#f5f5f5"/>
	<path d="m352 24c-4.28 9.057-10.18 17.232-15 26h16c0-7.761 2.01-18.831-1-26z" fill="#E3E3E3"/>
	<path d="m349 35c-2.1 4.114-4.74 7.474-6 12h7c0-3.983 0.55-8.303-1-12z" fill="#f5f5f5"/>
	<path d="m218 49c2.98 6.077 10.79 9.865 17 12-3.07-5.597-9.92-7.206-14-12h-3m-200 24v3c3.068 2.56 5.674 5.743 8 9 4.827-2.138 9.636-5.19 12-10-2.934-2.604-5.368-5.426-7-9-5.031 0.775-8.678 4.462-13 7z" fill="#E3E3E3"/>
	<path d="m27 69c-1.606 1.914-2.783 2.837-5 4 0.95 3.971 2.841 6.448 6 9l6-5c-1.494-3.846-3.276-6.18-7-8z" fill="#f5f5f5"/>
	<path d="m147.62 101.04c-3.31 2.63 1.71 6.92 4.76 4.06 3.16-2.95-2.07-6.195-4.76-4.06m179.38 6.96c0.52 6.43 1.5 14.06 4 20 2.3-5.9-1.18-13.91-2-20h-2m-88 42c1.25-4.53 4.69-8.54 5.64-12.98 0.73-3.44-6.27-13.66-10.34-12.28-2.09 0.7-3.3 3.51-4.3 5.26-4.36 7.67 0.62 17.27 9 20z" fill="#E3E3E3"/>
	<path d="m234 128c-3.93 7.39-5.42 12.25 3 17 4.73-7.28 6.03-12.62-3-17z" fill="#f5f5f5"/>
	<path d="m9 141c3.7-0.69 7.237-0.99 11-1v-3c-4.255 0-9.593-0.81-11 4m67 15l-1 23c6.812-3.24 11.865-9.67 18-14v-2c-5.227-2.78-11.322-5.36-17-7z" fill="#E3E3E3"/>
	<path d="m78 160v13l10-8c-2.888-2.61-6.27-3.93-10-5z" fill="#f5f5f5"/>
	<path d="m376 182c0.06-6.03 2.19-13.37 9.98-11.18 3.2 0.9 5.28 3.53 8.02 5.18-1.9-7.82-11.22-11.54-17.72-6.01-3.74 3.19-4.51 9.27-0.28 12.01m-77 3c-1.8 0.56-3.12 0.82-5 1 0.81 2.22 1.74 3.99 3 6 1.84-2.31 2.8-4.11 2-7m-126 5c-0.87 2.36-1.57 4.53-2 7l8 1 1-7-7-1m-76 59c5.94-1.42 13.19-7.07 15-13-5.81 2.67-11.29 7.82-15 13m192 12c2.58 2.07 4.84 5.24 8.02 6.39 3.38 1.23 7.5-0.12 10.98-0.39 1.21-3.79 3.45-7.94 2.26-12-2.1-7.18-11.61-10.82-17.42-5.15-2.64 2.58-3.33 7.68-3.84 11.15z" fill="#E3E3E3"/>
	<path d="m299.02 249.5c-9.91 1.83-7.44 16.93 2.94 15.14 9.5-1.65 6.65-16.91-2.94-15.14z" fill="#f5f5f5"/>
	<path d="m190 254c-1.52 5.15-1 10.66-1 16-5.38 0-13.54-1.8-17 3h20v-19h-2m193 13c-0.65 2.71-0.94 5.22-1 8h2c0.09-4.06 5.54-10.81 0-12 0.57-2.38 0.89-4.56 1-7-5.73 0.42-7.73 9.77-2 11m-340 12c1.065 8.38 3.334 16.56 4 25l11-1-4-25-11 1z" fill="#E3E3E3"/>
	<path d="m47 282c0.004 6.49 1.186 12.6 2 19l5-1c-0.004-6.15-0.863-11.97-2-18h-5z" fill="#f5f5f5"/>
	<path d="m244 295v6l4-1c-1.06-2.2-2.12-3.44-4-5m82 29c2.81 4.91 9.98 13.4 16 13-4.28-5.06-9.66-10.84-16-13m-197 15l2 6h6c-0.61-5.31-3-5.94-8-6m97 23c2.28 4.91 6.1 9.61 11 12 2.65-4.67 5.55-8.76 7-14l-18 2m134.06-1.22c-7.04 2.58-3.65 15.49 3.88 12.26 6.86-2.93 3.97-15.13-3.88-12.26z" fill="#E3E3E3"/>
	<path d="m360.52 364.09c-3.29 2.08-0.6 8.05 3.06 5.82 3.52-2.14 0.58-8.12-3.06-5.82m-130.52-0.09c1.86 2.17 3.81 4.16 6 6l3-6h-9z" fill="#f5f5f5"/>
</svg>
